<svg width="1024" height="1024" viewBox="0 0 1024 1024" fill="none" xmlns="http://www.w3.org/2000/svg">
  <rect width="1024" height="1024" rx="252" fill="url(#backdrop)"/>
  <g filter="url(#shadow)">
    <rect x="170" y="170" width="684" height="684" rx="168" fill="url(#shell)"/>
    <rect x="170" y="170" width="684" height="684" rx="168" stroke="url(#rim)" stroke-width="12"/>
  </g>
  <g filter="url(#markShadow)">
    <path d="M318 350H397L378 450H459L478 350H558L539 450H618V507H528L507 611H586V668H495L474 782H395L416 668H336L315 782H236L257 668H178V611H269L290 507H210V450H302L318 350ZM349 611H428L449 507H370L349 611Z" fill="#FBFBFB"/>
    <path d="M528 428C528 390.445 558.445 360 596 360H596.6C628.322 360 655.164 376.998 668.992 402.401C684.391 377.485 712.847 360 745.4 360H746C794.601 360 834 399.399 834 448V682H757V460C757 432.386 734.614 410 707 410C679.386 410 657 432.386 657 460V682H580V460C580 432.386 557.614 410 530 410H528V428Z" fill="#FBFBFB"/>
  </g>
  <defs>
    <filter id="shadow" x="106" y="120" width="812" height="820" filterUnits="userSpaceOnUse" color-interpolation-filters="sRGB">
      <feFlood flood-opacity="0" result="BackgroundImageFix"/>
      <feColorMatrix in="SourceAlpha" type="matrix" values="0 0 0 0 0 0 0 0 0 0 0 0 0 0 0 0 0 0 127 0" result="hardAlpha"/>
      <feOffset dy="26"/>
      <feGaussianBlur stdDeviation="32"/>
      <feComposite in2="hardAlpha" operator="out"/>
      <feColorMatrix type="matrix" values="0 0 0 0 0.01 0 0 0 0 0.01 0 0 0 0 0.015 0 0 0 0.28 0"/>
      <feBlend mode="normal" in2="BackgroundImageFix" result="effect1_dropShadow_0_1"/>
      <feBlend mode="normal" in="SourceGraphic" in2="effect1_dropShadow_0_1" result="shape"/>
    </filter>
    <filter id="markShadow" x="146" y="330" width="716" height="492" filterUnits="userSpaceOnUse" color-interpolation-filters="sRGB">
      <feFlood flood-opacity="0" result="BackgroundImageFix"/>
      <feColorMatrix in="SourceAlpha" type="matrix" values="0 0 0 0 0 0 0 0 0 0 0 0 0 0 0 0 0 0 127 0" result="hardAlpha"/>
      <feOffset dy="10"/>
      <feGaussianBlur stdDeviation="10"/>
      <feComposite in2="hardAlpha" operator="out"/>
      <feColorMatrix type="matrix" values="0 0 0 0 0.04 0 0 0 0 0.04 0 0 0 0 0.05 0 0 0 0.14 0"/>
      <feBlend mode="normal" in2="BackgroundImageFix" result="effect1_dropShadow_0_1"/>
      <feBlend mode="normal" in="SourceGraphic" in2="effect1_dropShadow_0_1" result="shape"/>
    </filter>
    <radialGradient id="backdrop" cx="0" cy="0" r="1" gradientUnits="userSpaceOnUse" gradientTransform="translate(512 512) rotate(90) scale(512)">
      <stop stop-color="#F2F2F2"/>
      <stop offset="0.74" stop-color="#E7E7E7"/>
      <stop offset="1" stop-color="#DBDBDB"/>
    </radialGradient>
    <linearGradient id="shell" x1="212" y1="178" x2="822" y2="842" gradientUnits="userSpaceOnUse">
      <stop stop-color="#111215"/>
      <stop offset="0.52" stop-color="#060708"/>
      <stop offset="1" stop-color="#000000"/>
    </linearGradient>
    <linearGradient id="rim" x1="204" y1="182" x2="810" y2="830" gradientUnits="userSpaceOnUse">
      <stop stop-color="white" stop-opacity="0.12"/>
      <stop offset="0.45" stop-color="white" stop-opacity="0.02"/>
      <stop offset="1" stop-color="white" stop-opacity="0.08"/>
    </linearGradient>
  </defs>
</svg>
