<svg width="64" height="64" viewBox="0 0 64 64" fill="none" xmlns="http://www.w3.org/2000/svg">
  <path d="M15.5 14.5C15.5 12.8431 16.8431 11.5 18.5 11.5H31.5442C32.3398 11.5 33.1029 11.8161 33.6655 12.3787L41.6213 20.3345C42.1839 20.8971 42.5 21.6602 42.5 22.4558V45.5C42.5 47.1569 41.1569 48.5 39.5 48.5H18.5C16.8431 48.5 15.5 47.1569 15.5 45.5V14.5Z" stroke="black" stroke-width="4" stroke-linejoin="round"/>
  <path d="M31.5 11.5V19.5C31.5 21.1569 32.8431 22.5 34.5 22.5H42.5" stroke="black" stroke-width="4" stroke-linejoin="round"/>
  <path d="M23 30.5H34.5" stroke="black" stroke-width="4" stroke-linecap="round"/>
  <path d="M23 38.5H34.5" stroke="black" stroke-width="4" stroke-linecap="round"/>
  <path d="M47.5 39V53M40.5 46H54.5" stroke="black" stroke-width="4" stroke-linecap="round"/>
</svg>
