<svg width="1024" height="1024" viewBox="0 0 1024 1024" fill="none" xmlns="http://www.w3.org/2000/svg">
  <rect width="1024" height="1024" rx="252" fill="url(#bg)"/>
  <rect x="86" y="86" width="852" height="852" rx="216" fill="url(#shell)" fill-opacity="0.96"/>
  <rect x="176" y="214" width="672" height="596" rx="124" fill="#F7F1E8"/>
  <path d="M176 302H848" stroke="#2B231E" stroke-opacity="0.1" stroke-width="16"/>
  <circle cx="244" cy="258" r="16" fill="#D8C4AB"/>
  <circle cx="292" cy="258" r="16" fill="#E5D6C3"/>
  <circle cx="340" cy="258" r="16" fill="#F0E7DB"/>
  <path d="M298 390C298 367.909 315.909 350 338 350H496.686C509.417 350 521.627 355.057 530.627 364.059L619.941 453.373C628.943 462.373 634 474.583 634 487.314V646C634 668.091 616.091 686 594 686H338C315.909 686 298 668.091 298 646V390Z" fill="#261F1A"/>
  <path d="M496 350L634 488H536C513.909 488 496 470.091 496 448V350Z" fill="#3A3028"/>
  <path d="M384 480H546" stroke="#F7F1E8" stroke-opacity="0.22" stroke-width="28" stroke-linecap="round"/>
  <path d="M384 552H548" stroke="#F7F1E8" stroke-opacity="0.22" stroke-width="28" stroke-linecap="round"/>
  <path d="M384 624H486" stroke="#F7F1E8" stroke-opacity="0.22" stroke-width="28" stroke-linecap="round"/>
  <circle cx="690" cy="610" r="96" fill="#261F1A"/>
  <path d="M690 560V660M640 610H740" stroke="#F7F1E8" stroke-width="34" stroke-linecap="round"/>
  <defs>
    <linearGradient id="bg" x1="136" y1="88" x2="892" y2="946" gradientUnits="userSpaceOnUse">
      <stop stop-color="#332923"/>
      <stop offset="1" stop-color="#15110F"/>
    </linearGradient>
    <linearGradient id="shell" x1="122" y1="122" x2="886" y2="916" gradientUnits="userSpaceOnUse">
      <stop stop-color="#45372F"/>
      <stop offset="1" stop-color="#1D1815"/>
    </linearGradient>
  </defs>
</svg>
